<?xml version="1.0" encoding="iso-8859-1"?>
<!-- Generator: Adobe Illustrator 16.0.0, SVG Export Plug-In . SVG Version: 6.00 Build 0)  -->
<!DOCTYPE svg PUBLIC "-//W3C//DTD SVG 1.1//EN" "http://www.w3.org/Graphics/SVG/1.1/DTD/svg11.dtd">
<svg version="1.1" id="Capa_1" xmlns="http://www.w3.org/2000/svg" xmlns:xlink="http://www.w3.org/1999/xlink" x="0px" y="0px"
	 width="107.863px" height="107.863px" viewBox="0 0 107.863 107.863" style="enable-background:new 0 0 107.863 107.863;"
	 xml:space="preserve">
<g>
	<g id="Cloud__x2B__Sun__x2B__Heavy_Rain">
		<g>
			<path d="M20.77,84.84c-1.33-0.176-2.579,0.758-2.769,2.111l-1.269,9.094c-0.188,1.359,0.745,2.619,2.086,2.811
				c0.116,0.015,0.231,0.024,0.346,0.024c1.199,0,2.25-0.897,2.423-2.138l1.267-9.094C23.042,86.289,22.109,85.035,20.77,84.84z
				 M33.912,84.84c-1.332-0.189-2.578,0.752-2.771,2.111l-2.533,18.078c-0.188,1.359,0.743,2.617,2.082,2.809
				c0.118,0.021,0.233,0.025,0.349,0.025c1.199,0,2.25-0.894,2.422-2.133l2.533-18.082C36.184,86.295,35.251,85.035,33.912,84.84z
				 M47.52,84.84c-1.339-0.189-2.583,0.752-2.771,2.111l-2.533,18.078c-0.19,1.359,0.74,2.617,2.082,2.809
				c0.115,0.021,0.233,0.025,0.346,0.025c1.201,0,2.25-0.894,2.425-2.133l2.533-18.082C49.79,86.295,48.859,85.035,47.52,84.84z
				 M60.657,84.84c-1.334-0.176-2.581,0.758-2.77,2.111l-1.266,9.094c-0.191,1.359,0.742,2.619,2.082,2.811
				c0.118,0.015,0.232,0.024,0.346,0.024c1.201,0,2.252-0.897,2.426-2.138l1.267-9.094C62.931,86.289,61.996,85.035,60.657,84.84z
				 M88.042,35.979c-1.938-11.101-12.42-18.529-23.37-16.573c-3.993,0.715-7.575,2.572-10.456,5.392
				c-1.583-0.41-3.233-0.651-4.94-0.651c-6.804,0-13.097,3.526-16.756,9.194c-2.149-1.339-4.632-2.057-7.215-2.057
				c-7.604,0-13.789,6.271-13.789,13.975c0,0.672,0.045,1.339,0.138,1.996C5.446,49.764,1.288,55.857,1.288,62.82
				c0,9.107,7.108,15.979,16.535,15.979h45.54c9.116,0,16.534-7.52,16.534-16.764c0-1.829-0.307-3.606-0.862-5.28
				C85.806,52.365,89.468,44.146,88.042,35.979z M63.363,73.835h-45.54c-6.634,0-11.634-4.735-11.634-11.015
				c0-5.493,3.671-10.213,8.928-11.478c0.672-0.161,1.244-0.598,1.58-1.209c0.333-0.612,0.399-1.34,0.181-2.002
				c-0.309-0.918-0.461-1.886-0.461-2.874c0-4.966,3.988-9.009,8.888-9.009c2.355,0,4.574,0.923,6.252,2.604
				c0.569,0.566,1.379,0.822,2.165,0.672c0.79-0.146,1.457-0.677,1.788-1.414c2.445-5.463,7.85-8.994,13.766-8.994
				c8.334,0,15.112,6.867,15.112,15.314c0,0.771-0.209,2.387-0.347,3.285c-0.201,1.294,0.625,2.523,1.884,2.809
				c5.256,1.199,9.073,6.04,9.073,11.512C74.998,68.543,69.779,73.835,63.363,73.835z M76.79,52.314
				c-1.885-2.672-4.521-4.789-7.629-5.977c0.07-0.662,0.125-1.355,0.125-1.906c0-7.463-4.007-13.98-9.943-17.503
				c1.825-1.32,3.914-2.22,6.182-2.626c8.305-1.495,16.228,4.138,17.691,12.545C84.271,42.866,81.665,48.93,76.79,52.314z
				 M68.222,11.943h0.015c1.354-0.011,2.442-1.129,2.435-2.504l-0.045-6.972C70.616,1.104,69.522,0,68.177,0h-0.016
				c-1.354,0.01-2.443,1.129-2.436,2.503l0.045,6.972C65.781,10.84,66.874,11.943,68.222,11.943z M104.125,39.741h-0.019
				l-6.879,0.045c-1.354,0.011-2.442,1.129-2.435,2.498c0.011,1.37,1.104,2.468,2.45,2.468h0.016l6.881-0.045
				c1.354-0.01,2.443-1.129,2.436-2.498C106.565,40.84,105.472,39.741,104.125,39.741z M90.159,20.831
				c0.632,0,1.264-0.245,1.742-0.742l4.834-4.961c0.951-0.974,0.939-2.548-0.022-3.511c-0.96-0.963-2.511-0.959-3.463,0.02
				l-4.833,4.966c-0.953,0.974-0.943,2.548,0.02,3.511C88.914,20.59,89.537,20.831,90.159,20.831z M42.828,20.089
				c0.479,0.497,1.111,0.742,1.743,0.742c0.622,0,1.244-0.241,1.721-0.718c0.965-0.963,0.973-2.537,0.022-3.511l-4.833-4.966
				c-0.953-0.979-2.503-0.982-3.463-0.02c-0.963,0.963-0.973,2.537-0.022,3.511L42.828,20.089z M89.205,60.799
				c-0.951-0.979-2.505-0.988-3.463-0.021c-0.966,0.964-0.974,2.533-0.022,3.512l4.834,4.966c0.479,0.492,1.11,0.737,1.742,0.737
				c0.622,0,1.244-0.235,1.721-0.717c0.965-0.963,0.973-2.533,0.022-3.512L89.205,60.799z"/>
		</g>
	</g>
</g>
<g>
</g>
<g>
</g>
<g>
</g>
<g>
</g>
<g>
</g>
<g>
</g>
<g>
</g>
<g>
</g>
<g>
</g>
<g>
</g>
<g>
</g>
<g>
</g>
<g>
</g>
<g>
</g>
<g>
</g>
</svg>
