<?xml version="1.0" encoding="iso-8859-1"?>
<!-- Generator: Adobe Illustrator 16.0.0, SVG Export Plug-In . SVG Version: 6.00 Build 0)  -->
<!DOCTYPE svg PUBLIC "-//W3C//DTD SVG 1.1//EN" "http://www.w3.org/Graphics/SVG/1.1/DTD/svg11.dtd">
<svg version="1.1" id="Capa_1" xmlns="http://www.w3.org/2000/svg" xmlns:xlink="http://www.w3.org/1999/xlink" x="0px" y="0px"
	 width="107.74px" height="107.74px" viewBox="0 0 107.74 107.74" style="enable-background:new 0 0 107.74 107.74;"
	 xml:space="preserve">
<g>
	<g id="Cloud__x2B__Moon__x2B__Heavy_Rain">
		<g>
			<path d="M24.106,83.333c-1.425-0.187-2.77,0.798-2.973,2.242l-1.361,9.641c-0.203,1.438,0.8,2.77,2.237,2.975
				c0.125,0.021,0.248,0.025,0.371,0.025c1.291,0,2.417-0.948,2.604-2.263l1.358-9.642C26.546,84.868,25.546,83.539,24.106,83.333z
				 M38.213,83.333c-1.433-0.2-2.771,0.798-2.975,2.236l-2.719,19.166c-0.206,1.444,0.795,2.773,2.234,2.979
				c0.126,0.015,0.251,0.025,0.374,0.025c1.286,0,2.412-0.948,2.601-2.264l2.719-19.166C40.651,84.873,39.653,83.539,38.213,83.333z
				 M52.822,83.333c-1.429-0.2-2.771,0.798-2.974,2.236l-2.719,19.166c-0.206,1.444,0.795,2.773,2.234,2.979
				c0.125,0.015,0.248,0.025,0.373,0.025c1.287,0,2.413-0.948,2.602-2.264l2.719-19.166C55.262,84.873,54.261,83.539,52.822,83.333z
				 M66.924,83.333c-1.426-0.187-2.771,0.798-2.972,2.242l-1.358,9.641c-0.207,1.438,0.798,2.77,2.233,2.975
				c0.126,0.021,0.248,0.025,0.374,0.025c1.289,0,2.415-0.948,2.602-2.263l1.358-9.642C69.365,84.868,68.364,83.539,66.924,83.333z
				 M101.381,24.952c0-0.12-0.006-0.24-0.015-0.355c-0.021-1.109-0.725-2.082-1.769-2.448c-1.049-0.361-2.204-0.03-2.901,0.827
				c-2.688,3.301-6.666,5.197-10.907,5.197c-7.757,0-14.07-6.32-14.07-14.085c0-3.587,1.365-7.013,3.839-9.646
				c0.76-0.803,0.933-1.996,0.437-2.99c-0.498-0.988-1.578-1.574-2.656-1.43c-13.238,1.561-22.13,10.87-22.13,23.174
				c0,0.163,0.02,0.321,0.048,0.477c-5.914,0.539-11.27,3.737-14.519,8.593c-2.066-1.224-4.432-1.876-6.892-1.876
				c-7.494,0-13.594,6.109-13.594,13.613c0,0.587,0.035,1.169,0.11,1.74c-5.998,2.484-10.001,8.342-10.001,15.033
				c0,8.849,6.987,15.521,16.252,15.521h44.038c8.961,0,16.251-7.299,16.251-16.268c0-3.878-1.412-7.519-3.773-10.373
				C91.416,47.488,101.381,36.875,101.381,24.952z M66.649,71.028H22.611c-6.265,0-10.99-4.408-10.99-10.253
				c0-5.126,3.469-9.525,8.438-10.709c0.72-0.171,1.334-0.637,1.692-1.289c0.359-0.643,0.427-1.414,0.19-2.117
				c-0.283-0.842-0.429-1.74-0.429-2.658c0-4.6,3.737-8.347,8.332-8.347c2.207,0,4.291,0.858,5.861,2.418
				c0.611,0.602,1.479,0.878,2.327,0.712c0.848-0.155,1.564-0.717,1.921-1.5c2.322-5.126,7.454-8.437,13.074-8.437
				c7.912,0,14.348,6.44,14.348,14.36c0,0.723-0.203,2.283-0.328,3.101c-0.215,1.374,0.67,2.673,2.021,2.979
				c4.966,1.113,8.572,5.633,8.572,10.739C77.642,66.093,72.711,71.028,66.649,71.028z M74.543,44.8
				c-0.479,0-0.924,0.139-1.311,0.363c-0.23-0.104-0.458-0.211-0.693-0.304c0.057-0.576,0.1-1.168,0.1-1.65
				c0-9.684-7.049-17.729-16.275-19.321c0.062-0.222,0.104-0.451,0.104-0.692c0-7.523,4.406-13.613,11.435-16.427
				c-0.944,2.298-1.442,4.775-1.442,7.318c0,10.669,8.674,19.352,19.332,19.352c3.254,0,6.392-0.808,9.172-2.312
				C91.998,38.892,83.719,44.8,74.543,44.8z"/>
		</g>
	</g>
</g>
<g>
</g>
<g>
</g>
<g>
</g>
<g>
</g>
<g>
</g>
<g>
</g>
<g>
</g>
<g>
</g>
<g>
</g>
<g>
</g>
<g>
</g>
<g>
</g>
<g>
</g>
<g>
</g>
<g>
</g>
</svg>
