<?xml version="1.0" encoding="iso-8859-1"?>
<!-- Generator: Adobe Illustrator 19.0.0, SVG Export Plug-In . SVG Version: 6.00 Build 0)  -->
<svg version="1.1" id="Layer_1" xmlns="http://www.w3.org/2000/svg" xmlns:xlink="http://www.w3.org/1999/xlink" x="0px" y="0px"
	 viewBox="0 0 181.855 181.855" style="enable-background:new 0 0 181.855 181.855;" xml:space="preserve">
<g>
	<g>
		<path d="M146.069,51.74c-1.881-25.887-24.296-46.392-51.576-46.392c-21.642,0-40.714,12.797-48.323,32.12
			c-0.529-0.019-1.062-0.028-1.598-0.028C19.995,37.439,0,57.434,0,82.012s19.995,44.573,44.573,44.573h6.479l-0.887,2.267
			c-0.428,1.097-0.289,2.335,0.376,3.31c0.665,0.973,1.769,1.555,2.946,1.555h35.658v39.224c0,1.668,1.156,3.113,2.782,3.479
			c0.261,0.059,0.526,0.087,0.783,0.087c1.355,0,2.622-0.773,3.221-2.037l22.797-48.064c0.292,0.077,0.576,0.18,0.893,0.18
			c8.862,0,26.573-0.045,26.747-0.051c19.897-1.024,35.487-17.448,35.487-37.39C181.856,69.053,165.95,52.608,146.069,51.74z
			 M96.276,157.101V130.15c0.001-1.969-1.594-3.566-3.565-3.566H58.71l23.303-59.55v38.242c0,1.969,1.595,3.566,3.566,3.566h33.586
			L96.276,157.101z M146.174,119.407c0,0-14.848,0.038-24.148,0.045l5.998-12.646c0.526-1.106,0.446-2.401-0.209-3.435
			c-0.651-1.033-1.79-1.659-3.012-1.659H89.145V48.136c0-1.715-1.219-3.186-2.904-3.503c-1.686-0.32-3.357,0.608-3.984,2.204
			l-28.414,72.614l-8.692-0.003l-0.578,0.003c-20.646,0-37.441-16.796-37.441-37.441c0-20.645,16.795-37.441,37.441-37.441
			c1.243,0,2.476,0.061,3.691,0.179c1.64,0.171,3.211-0.843,3.733-2.43c5.895-17.847,22.976-29.84,42.497-29.84
			c24.578,0,44.573,19.196,44.573,42.79c0,1.933,1.539,3.514,3.472,3.564c0.439,0.009,0.87,0.007,1.309,0.005l0.568-0.004
			c16.711,0,30.309,13.596,30.309,30.309C174.725,105.287,162.108,118.582,146.174,119.407z"/>
	</g>
</g>
<g>
</g>
<g>
</g>
<g>
</g>
<g>
</g>
<g>
</g>
<g>
</g>
<g>
</g>
<g>
</g>
<g>
</g>
<g>
</g>
<g>
</g>
<g>
</g>
<g>
</g>
<g>
</g>
<g>
</g>
</svg>
