<?xml version="1.0" encoding="iso-8859-1"?>
<!-- Generator: Adobe Illustrator 19.1.0, SVG Export Plug-In . SVG Version: 6.00 Build 0)  -->
<svg version="1.1" id="Capa_1" xmlns="http://www.w3.org/2000/svg" xmlns:xlink="http://www.w3.org/1999/xlink" x="0px" y="0px"
	 viewBox="0 0 419.49 419.49" style="enable-background:new 0 0 419.49 419.49;" xml:space="preserve">
<g>
	<g id="Cloud__x2B__Snow">
		<g>
			<path d="M349.288,152.241c-9.07-68.524-53.014-118.614-122.536-118.614c-58.207,0-90.428,35.078-110.292,89.521
				c-7.256-1.769-14.716-2.653-22.244-2.653C42.221,120.496,0,165.778,0,217.749c0,49.727,40.702,85.803,90.701,88.796h11.338
				V283.87H90.701c-36.099-2.154-68.025-29.999-68.025-66.121c0-37.777,33.763-71.517,71.54-71.517
				c8.843,0,17.528,1.723,25.804,5.057l13.673,5.578l3.696-14.263c12.789-49.749,38.026-85.961,89.363-85.961
				c60.293,0,95.19,48.684,97.889,108.954l0.59,13.084l15.646-1.134c29.16,0,55.962,22.584,55.962,51.699
				c0,29.138-27.528,54.602-56.688,54.602h-34.013v22.675h33.99c43.355,0,79.363-33.967,79.363-77.277
				C419.49,189.156,388.879,156.481,349.288,152.241z M274.347,241.762l-11.247,6.825l1.02-11.564l-17.777-1.746l-2.245,24.807
				l-31.065,18.82v-37.641l19.342-14.444l-10.34-15.306l-9.002,6.735v-13.65H195.12v13.65l-8.979-6.735l-10.363,15.328
				l19.365,14.444v37.663l-31.065-18.82l-2.245-24.807l-17.777,1.746l1.02,11.564l-11.247-6.825l-9.002,16.213l11.27,6.825
				l-10.045,4.83l7.46,17.074l21.587-10.385l31.065,18.843l-31.065,18.843l-21.587-10.385l-7.46,17.074l10.045,4.83l-11.27,6.825
				l8.979,16.281l11.247-6.825l-1.02,11.564l17.777,1.746l2.245-24.807l31.065-18.843v37.663l-19.365,14.444l10.363,15.328
				l8.979-6.712v13.628h17.913v-13.628l8.979,6.712l10.363-15.328l-19.342-14.444v-37.663l31.065,18.843l2.245,24.807l17.777-1.746
				l-1.02-11.564l11.247,6.825l8.934-16.281l-11.247-6.803l10.045-4.83l-7.46-17.074l-21.609,10.385l-31.065-18.843l31.065-18.843
				l21.609,10.385l7.46-17.074l-10.068-4.83l11.27-6.825L274.347,241.762z"/>
		</g>
	</g>
</g>
<g>
</g>
<g>
</g>
<g>
</g>
<g>
</g>
<g>
</g>
<g>
</g>
<g>
</g>
<g>
</g>
<g>
</g>
<g>
</g>
<g>
</g>
<g>
</g>
<g>
</g>
<g>
</g>
<g>
</g>
</svg>
