<?xml version="1.0" standalone="no"?><!-- Generator: Gravit.io --><svg xmlns="http://www.w3.org/2000/svg" xmlns:xlink="http://www.w3.org/1999/xlink" style="isolation:isolate" viewBox="0 0 244 244.51435750732256" width="244" height="244.51435750732256"><path d=" M 104.26588353616856 192.41007896343618 C 107.13590610370346 193.0726758820925 109.99966591953408 191.2832001419505 110.66226283819041 188.41317757441556 L 113.06174075119165 178.01989688337304 C 113.72433766984798 175.1498743158381 111.93486192970593 172.2861145000075 109.06483936217101 171.62351758135117 C 106.19481679463608 170.96092066269483 103.33105697880546 172.75039640283688 102.66846006014913 175.62041897037182 L 100.26898214714791 186.01369966141434 C 99.60638522849158 188.88372222894927 101.39586096863363 191.74748204477984 104.26588353616856 192.41007896343618 Z  M 97.06744979716487 223.5899210365637 C 99.93747236469977 224.25251795522004 102.80123218053039 222.463042215078 103.46382909918673 219.5930196475431 L 105.86330701218796 209.19973895650057 C 106.5259039308443 206.32971638896564 104.73642819070224 203.46595657313503 101.86640562316732 202.8033596544787 C 98.99638305563239 202.14076273582236 96.13262323980177 203.93023847596442 95.47002632114544 206.80026104349935 L 93.07054840814422 217.19354173454187 C 92.40795148948789 220.06356430207677 94.19742722962994 222.92732411790738 97.06744979716487 223.5899210365637 Z  M 92.2684939711624 244.37648241864872 C 95.13851653869732 245.03907933730505 98.00227635452794 243.24960359716306 98.66487327318427 240.3795810296281 C 99.3274701918406 237.50955846209317 97.53799445169855 234.64579864626253 94.66797188416363 233.9832017276062 C 91.7979493166287 233.32060480894987 88.93418950079808 235.11008054909195 88.27159258214175 237.98010311662688 C 87.60899566348542 240.8501256841618 89.39847140362747 243.7138854999924 92.2684939711624 244.37648241864872 L 92.2684939711624 244.37648241864872 Z " fill-rule="evenodd" fill="rgb(0,0,0)"/><path d=" M 145.0617407511916 178.019896883373 C 145.72433766984793 175.14987431583808 143.93486192970587 172.28611450000747 141.06483936217094 171.62351758135114 C 138.194816794636 170.9609206626948 135.3310569788054 172.75039640283686 134.66846006014907 175.6204189703718 C 134.00586314149274 178.49044153790672 135.7953388816348 181.35420135373735 138.66536144916972 182.0167982723937 C 141.53538401670465 182.67939519105002 144.39914383253526 180.88991945090794 145.0617407511916 178.019896883373 Z  M 131.46692771016603 213.19664034552116 C 134.33695027770096 213.8592372641775 137.20071009353157 212.06976152403547 137.8633070121879 209.19973895650054 L 140.26278492518912 198.80645826545802 C 140.92538184384546 195.93643569792312 139.1359061037034 193.0726758820925 136.26588353616847 192.41007896343618 C 133.39586096863354 191.74748204477984 130.53210115280294 193.5369577849219 129.8695042341466 196.4069803524568 L 127.47002632114538 206.80026104349932 C 126.80742940248905 209.67028361103425 128.5969051426311 212.53404342686483 131.46692771016603 213.19664034552116 Z  M 124.26849397116233 244.3764824186487 C 127.13851653869726 245.03907933730503 130.00227635452788 243.24960359716303 130.6648732731842 240.3795810296281 L 133.06435118618543 229.98630033858555 C 133.72694810484177 227.11627777105062 131.93747236469972 224.25251795522004 129.06744979716478 223.5899210365637 C 126.19742722962985 222.92732411790738 123.33366741379925 224.7167998580494 122.67107049514291 227.58682242558433 L 120.2715925821417 237.98010311662685 C 119.60899566348536 240.85012568416178 121.3984714036274 243.71388549999236 124.26849397116233 244.3764824186487 Z " fill-rule="evenodd" fill="rgb(0,0,0)"/><path d=" M 169.86330701218793 209.19973895650054 C 170.52590393084427 206.3297163889656 168.7364281907022 203.465956573135 165.86640562316728 202.80335965447867 C 162.99638305563235 202.14076273582234 160.13262323980177 203.9302384759644 159.47002632114544 206.80026104349932 C 158.8074294024891 209.67028361103425 160.59690514263113 212.53404342686483 163.46692771016606 213.19664034552116 C 166.336950277701 213.8592372641775 169.2007100935316 212.06976152403547 169.86330701218793 209.19973895650054 Z  M 168.26588353616853 192.41007896343618 C 171.13590610370346 193.0726758820925 173.99966591953404 191.28320014195046 174.66226283819037 188.41317757441553 L 177.06174075119162 178.019896883373 C 177.72433766984796 175.14987431583808 175.9348619297059 172.28611450000747 173.06483936217097 171.62351758135114 C 170.19481679463604 170.9609206626948 167.33105697880546 172.75039640283686 166.66846006014913 175.6204189703718 L 164.26898214714788 186.0136996614143 C 163.60638522849155 188.88372222894924 165.3958609686336 191.74748204477984 168.26588353616853 192.41007896343618 Z  M 156.26849397116237 244.3764824186487 C 159.1385165386973 245.03907933730503 162.0022763545279 243.24960359716303 162.66487327318424 240.3795810296281 L 165.06435118618546 229.98630033858555 C 165.7269481048418 227.11627777105062 163.93747236469977 224.25251795522004 161.06744979716484 223.5899210365637 C 158.1974272296299 222.92732411790738 155.3336674137993 224.7167998580494 154.67107049514297 227.5868224255843 L 152.27159258214175 237.98010311662685 C 151.60899566348542 240.85012568416178 153.39847140362744 243.71388549999236 156.26849397116237 244.3764824186487 Z " fill-rule="evenodd" fill="rgb(0,0,0)"/><path d=" M 186 160 C 212.50966389973956 160 234 138.50966389973956 234 112 C 234 85.49033610026041 212.50966389973956 64 186 64 C 177.40013631184894 64 172.2265625 65.93424479166666 168.99583943684894 67.16098022460938 C 162.82124837239581 28.928543090820312 129.64363606770831 0 90 0 C 45.81722005208333 0 10 35.81722005208333 10 80 C 10 124.18277994791666 45.81722005208333 160 90 160 L 186 160 Z " fill-rule="evenodd" fill="rgb(0,0,0)"/></svg>